<svg id="Layer_1" data-name="Layer 1" xmlns="http://www.w3.org/2000/svg" xmlns:xlink="http://www.w3.org/1999/xlink" viewBox="0 0 423 180.5"><defs><style>.cls-1{opacity:0.1;}.cls-2{fill:url(#linear-gradient);}.cls-3,.cls-4{fill:#fff;}.cls-4{font-size:72px;font-family:Helvetica, Helvetica;font-weight:500;}.cls-5{fill:url(#linear-gradient-2);}</style><linearGradient id="linear-gradient" x1="40.09" y1="-1362.37" x2="140.87" y2="-1261.6" gradientTransform="matrix(1, 0, 0, -1, 0, -1222)" gradientUnits="userSpaceOnUse"><stop offset="0.21" stop-color="#fff"/><stop offset="0.42" stop-color="#fff" stop-opacity="0"/><stop offset="0.59" stop-color="#fff" stop-opacity="0"/><stop offset="0.81" stop-color="#fff"/></linearGradient><linearGradient id="linear-gradient-2" x1="40.11" y1="140.37" x2="140.87" y2="39.61" gradientUnits="userSpaceOnUse"><stop offset="0.21" stop-color="#fff"/><stop offset="0.42" stop-color="#fff" stop-opacity="0"/><stop offset="0.59" stop-color="#fff" stop-opacity="0"/><stop offset="0.81" stop-color="#fff"/></linearGradient></defs><title>docs</title><g class="cls-1"><path class="cls-2" d="M48.84,144a12.33,12.33,0,0,0,9.35-4.29h0l84.42-97.92A12.31,12.31,0,0,0,132.11,36h0a12.38,12.38,0,0,0-9.32,4.23L38,137.59A12.36,12.36,0,0,0,48.84,144Z"/><path class="cls-3" d="M48.84,144a12.26,12.26,0,0,0,5.66-1.38V60.86l65.58,78.64a12.33,12.33,0,0,0,9.42,4.5h2.59a12.34,12.34,0,0,0,12.41-12.25V48.35A12.34,12.34,0,0,0,132.18,36h0a12.47,12.47,0,0,0-5.65,1.35v81.79L60.92,40.5A12.33,12.33,0,0,0,51.5,36H48.84A12.34,12.34,0,0,0,36.5,48.32v83.33A12.34,12.34,0,0,0,48.81,144Z"/><path class="cls-3" d="M372,36H153.46A18.88,18.88,0,0,1,158,48.35v83.31A19.06,19.06,0,0,1,153.47,144H372a15,15,0,0,0,15-15V51A15,15,0,0,0,372,36Z"/></g><text class="cls-4" transform="translate(182 117)">Docs</text><path class="cls-5" d="M48.84,144a12.32,12.32,0,0,0,9.35-4.28h0l84.42-97.93A12.32,12.32,0,0,0,132.16,36h0a12.31,12.31,0,0,0-9.31,4.24L38,137.59A12.34,12.34,0,0,0,48.84,144Z"/><path class="cls-3" d="M48.84,144a12.38,12.38,0,0,0,5.66-1.37V60.86l65.58,78.7a12.37,12.37,0,0,0,9.49,4.44h2.59a12.35,12.35,0,0,0,12.34-12.34V48.34A12.35,12.35,0,0,0,132.16,36h0a12.45,12.45,0,0,0-5.62,1.35v81.79L60.92,40.44A12.37,12.37,0,0,0,51.43,36H48.84A12.35,12.35,0,0,0,36.5,48.34v83.32A12.35,12.35,0,0,0,48.84,144Z"/></svg>